<?xml version="1.0" encoding="UTF-8"?>
<svg xmlns="http://www.w3.org/2000/svg" viewBox="0 0 128 128" width="128px" height="128px">
<g id="surface1769132">
<path style=" stroke:none;fill-rule:nonzero;fill:rgb(55.29412%,87.843138%,69.01961%);fill-opacity:1;" d="M 64 11 C 34.800781 11 11 34.800781 11 64 C 11 93.199219 34.800781 117 64 117 C 93.199219 117 117 93.199219 117 64 C 117 34.800781 93.199219 11 64 11 Z M 64 17 C 89.898438 17 111 38.101562 111 64 C 111 89.898438 89.898438 111 64 111 C 38.101562 111 17 89.898438 17 64 C 17 38.101562 38.101562 17 64 17 Z M 64 26 C 62.300781 26 61 27.300781 61 29 L 61 54.5 C 56.898438 55.800781 54 59.601562 54 64 C 54 69.5 58.5 74 64 74 C 68.5 74 72.300781 71.101562 73.5 67 L 89 67 C 90.699219 67 92 65.699219 92 64 C 92 62.300781 90.699219 61 89 61 L 73.5 61 C 72.5 57.898438 70.101562 55.398438 67 54.5 L 67 29 C 67 27.300781 65.699219 26 64 26 Z M 64 60 C 66.199219 60 68 61.800781 68 64 C 68 66.199219 66.199219 68 64 68 C 61.800781 68 60 66.199219 60 64 C 60 61.800781 61.800781 60 64 60 Z M 64 60 "/>
</g>
</svg>
